<?xml version="1.0" standalone="no"?>
<!DOCTYPE svg PUBLIC "-//W3C//DTD SVG 20010904//EN"
 "http://www.w3.org/TR/2001/REC-SVG-20010904/DTD/svg10.dtd">
<svg version="1.0" xmlns="http://www.w3.org/2000/svg"
 width="3.5rem" height="3.5rem" viewBox="0 0 200.000000 200.000000"
 preserveAspectRatio="xMidYMid meet">

<g transform="translate(0.000000,200.000000) scale(0.100000,-0.100000)"
fill="#999" stroke="none">
<path d="M791 1884 c-218 -59 -310 -89 -325 -104 -21 -20 -21 -24 -24 -765
l-2 -745 -109 0 c-119 0 -141 -10 -141 -63 0 -51 24 -57 248 -57 l204 0 238
-55 c131 -30 248 -55 259 -55 19 0 21 6 21 55 l0 55 303 0 c334 0 347 2 347
59 0 49 -25 61 -128 61 l-92 0 0 753 c0 680 -2 755 -16 776 -30 43 -71 51
-249 51 l-165 0 0 38 c0 38 -16 63 -50 74 -8 3 -152 -32 -319 -78z m689 -884
l0 -730 -160 0 -160 0 0 730 0 730 160 0 160 0 0 -730z m-500 80 c46 -25 42
-140 -5 -162 -69 -31 -114 90 -57 155 17 19 35 21 62 7z"/>
</g>
</svg>
